<svg width="254px" id="Layer_1" data-name="Layer 1" xmlns="http://www.w3.org/2000/svg" viewBox="0 0 310.92 78.15"><defs><style>.cls-1{fill:#ffffff;}</style></defs><title>Untitled-1</title><polygon points="81.67 43.16 62.43 33.55 62.43 14.31 81.67 23.93 81.67 43.16"/><path class="cls-1" d="M81.66,44.12a1,1,0,0,1-.43-.1L62,34.41a1,1,0,0,1-.53-.86V14.31a1,1,0,0,1,1.39-.86l19.23,9.62a1,1,0,0,1,.54.86V43.16a1,1,0,0,1-.46.82A1,1,0,0,1,81.66,44.12ZM63.4,33,80.7,41.6V24.52L63.4,15.87Z"/><polygon points="62.43 33.55 43.2 43.16 43.2 23.93 62.43 14.31 62.43 33.55"/><path class="cls-1" d="M43.2,44.12a1,1,0,0,1-.5-.14,1,1,0,0,1-.46-.82V23.93a1,1,0,0,1,.53-.86L62,13.45a1,1,0,0,1,.94.05,1,1,0,0,1,.46.81V33.55a1,1,0,0,1-.54.86L43.63,44A.91.91,0,0,1,43.2,44.12Zm1-19.6V41.6L61.47,33V15.87Zm18.26,9h0Z"/><polygon points="81.67 43.16 62.43 52.78 62.43 33.55 81.67 23.93 81.67 43.16"/><path class="cls-1" d="M62.43,53.74a.91.91,0,0,1-.5-.15,1,1,0,0,1-.46-.81V33.55a1,1,0,0,1,.53-.86l19.23-9.62a1,1,0,0,1,1.4.86V43.16a1,1,0,0,1-.54.86L62.86,53.64A1,1,0,0,1,62.43,53.74Zm1-19.6V51.22l17.3-8.65V25.49Zm18.26,9h0Z"/><polygon points="100.89 52.78 81.67 43.16 81.67 23.93 100.89 33.55 100.89 52.78"/><path class="cls-1" d="M100.9,53.74a1,1,0,0,1-.43-.1L81.23,44a1,1,0,0,1-.53-.86V23.93a1,1,0,0,1,.46-.82,1,1,0,0,1,.93,0l19.24,9.62a1,1,0,0,1,.53.86V52.78a1,1,0,0,1-.46.81A.91.91,0,0,1,100.9,53.74ZM82.63,42.57l17.3,8.65V34.14l-17.3-8.65Z"/><polygon points="81.67 62.39 62.43 52.78 62.43 33.55 81.67 43.16 81.67 62.39"/><path class="cls-1" d="M81.66,63.35a1,1,0,0,1-.43-.1L62,53.64a1,1,0,0,1-.53-.86V33.55a1,1,0,0,1,.46-.82.94.94,0,0,1,.93,0L82.09,42.3a1,1,0,0,1,.54.86V62.39a1,1,0,0,1-.46.82A.91.91,0,0,1,81.66,63.35ZM63.4,52.18l17.3,8.66V43.76L63.4,35.1Z"/><polygon points="100.89 52.78 81.67 62.39 81.67 43.16 100.89 33.55 100.89 52.78"/><path class="cls-1" d="M81.66,63.35a.9.9,0,0,1-.5-.14,1,1,0,0,1-.46-.82V43.16a1,1,0,0,1,.53-.86l19.24-9.61a.94.94,0,0,1,.93,0,1,1,0,0,1,.46.82V52.78a1,1,0,0,1-.53.86L82.09,63.25A.91.91,0,0,1,81.66,63.35Zm1-19.59V60.84l17.3-8.66V35.1Zm18.27,9Z"/><polygon points="43.2 43.16 23.97 52.78 23.97 33.55 43.2 23.93 43.2 43.16"/><path class="cls-1" d="M24,53.74a.91.91,0,0,1-.5-.15.94.94,0,0,1-.46-.81V33.55a1,1,0,0,1,.53-.86l19.23-9.62a1,1,0,0,1,1.4.86V43.16a1,1,0,0,1-.54.86L24.4,53.64A1,1,0,0,1,24,53.74Zm1-19.6V51.22l17.31-8.65V25.49Zm18.27,9h0Z"/><polygon points="62.43 52.78 43.2 43.16 43.2 23.93 62.43 33.55 62.43 52.78"/><path class="cls-1" d="M62.43,53.74a1.12,1.12,0,0,1-.43-.1L42.77,44a1,1,0,0,1-.53-.86V23.93a1,1,0,0,1,1.39-.86l19.23,9.62a1,1,0,0,1,.54.86V52.78a1,1,0,0,1-.46.81A.92.92,0,0,1,62.43,53.74ZM44.17,42.57l17.3,8.65V34.14l-17.3-8.65Z"/><polygon points="43.2 62.39 23.97 52.78 23.97 33.55 43.2 43.16 43.2 62.39"/><path class="cls-1" d="M43.2,63.35a1,1,0,0,1-.43-.1L23.54,53.64a1,1,0,0,1-.53-.86V33.55a1,1,0,0,1,1.39-.86L43.63,42.3a1,1,0,0,1,.54.86V62.39a1,1,0,0,1-.46.82A.94.94,0,0,1,43.2,63.35ZM24.93,52.18l17.31,8.66V43.76L24.93,35.1Z"/><polygon points="62.43 52.78 43.2 62.39 43.2 43.16 62.43 33.55 62.43 52.78"/><path class="cls-1" d="M43.2,63.35a.9.9,0,0,1-.5-.14,1,1,0,0,1-.46-.82V43.16a1,1,0,0,1,.53-.86L62,32.69a1,1,0,0,1,1.4.86V52.78a1,1,0,0,1-.54.86L43.63,63.25A.91.91,0,0,1,43.2,63.35Zm1-19.59V60.84l17.3-8.66V35.1Zm18.26,9h0Z"/><path d="M146.1,53H142l-2.6-4.78H126.94L124.42,53h-3.94l11-20.43H135ZM133.21,36.5l-4.45,8.28h8.91Z"/><path d="M170.44,53H167L154.19,37.84V53h-3.47V32.59h3.47L167,47.73V32.59h3.47Z"/><path d="M198,53h-4.34l-5.87-8.36h-7.17V53h-3.47V32.59h12.61a14,14,0,0,1,2.94.3,7.69,7.69,0,0,1,2.48,1,4.77,4.77,0,0,1,1.72,1.79,5.71,5.71,0,0,1,.63,2.82,6.84,6.84,0,0,1-.51,2.82,5.16,5.16,0,0,1-1.32,1.79,5.73,5.73,0,0,1-1.78,1,13,13,0,0,1-1.87.49Zm-7.88-11.83a6.21,6.21,0,0,0,2.84-.57,2.13,2.13,0,0,0,1.1-2.07,2.73,2.73,0,0,0-.28-1.36,1.74,1.74,0,0,0-.81-.75,3.59,3.59,0,0,0-1.3-.32c-.51,0-1.09-.06-1.75-.06h-9.3v5.13Z"/><path d="M221.33,53H203V32.59h18.37v3.47h-14.9v4.7h8v3.46h-8v5.33h14.9Z"/><path d="M237.33,32.59a16.77,16.77,0,0,1,3.49.4,8.82,8.82,0,0,1,3.37,1.5,8.22,8.22,0,0,1,2.55,3.09,11.44,11.44,0,0,1,1,5.15,11.23,11.23,0,0,1-.85,4.57,9,9,0,0,1-5.61,5.1,12.75,12.75,0,0,1-3.95.62H226.14V32.59Zm0,17a8.41,8.41,0,0,0,2.68-.42,6.15,6.15,0,0,0,2.21-1.24,5.77,5.77,0,0,0,1.5-2.11,7.54,7.54,0,0,0,.55-3,7.81,7.81,0,0,0-.57-3.17,5.52,5.52,0,0,0-1.54-2.07,5.82,5.82,0,0,0-2.22-1.12,10.32,10.32,0,0,0-2.61-.34h-7.72V49.55Z"/><path d="M256.18,53h-3.46V32.59h3.46Z"/><path d="M287,53h-4.1l-2.6-4.78H267.81L265.29,53h-3.94l11-20.43h3.47ZM274.08,36.5l-4.45,8.28h8.91Z"/></svg>